<svg xmlns="http://www.w3.org/2000/svg" viewBox="0 0 800 480"><defs><linearGradient id="room" x1="0" y1="0" x2="0" y2="1"><stop stop-color="#f2d7a1"/><stop offset="1" stop-color="#9a6949"/></linearGradient><radialGradient id="lamp" cx="50%" cy="0" r="80%"><stop stop-color="#fff2bd" stop-opacity=".8"/><stop offset="1" stop-color="#fff2bd" stop-opacity="0"/></radialGradient></defs><rect width="800" height="480" fill="url(#room)"/><rect x="0" y="0" width="800" height="480" fill="url(#lamp)"/><rect x="44" y="55" width="712" height="276" rx="10" fill="#d6c5a5" opacity=".62"/><rect x="64" y="75" width="180" height="230" fill="#9dc0bb"/><path d="M64 214l65-61 49 45 66-74v181H64z" fill="#678778" opacity=".9"/><path d="M0 0h800v34H0zM0 322h800v158H0z" fill="#5c4337"/><path d="M0 142h800v16H0zM260 55h14v267h-14zM526 55h14v267h-14z" fill="#6e4b39"/><ellipse cx="400" cy="408" rx="290" ry="61" fill="#6a4938"/><ellipse cx="400" cy="390" rx="267" ry="48" fill="#c59b6b"/><g><ellipse cx="317" cy="381" rx="45" ry="14" fill="#f5e2be"/><ellipse cx="317" cy="377" rx="30" ry="8" fill="#7b9f63"/><ellipse cx="404" cy="392" rx="50" ry="14" fill="#f6e4c1"/><ellipse cx="404" cy="388" rx="34" ry="8" fill="#c2674d"/><ellipse cx="492" cy="378" rx="44" ry="13" fill="#f5e2be"/><ellipse cx="492" cy="374" rx="29" ry="8" fill="#7c9565"/><circle cx="366" cy="399" r="12" fill="#f1d3a4"/><circle cx="450" cy="402" r="12" fill="#f1d3a4"/></g><g transform="translate(112 206)"><circle cx="44" cy="38" r="25" fill="#e2b18e"/><path d="M17 39c1-28 18-43 40-43 18 0 32 11 37 27-14-5-28-2-39 7-10 7-20 10-38 9z" fill="#503a31"/><path d="M13 80c15-24 33-34 53-34 20 0 39 10 54 34l11 101H2z" fill="#66745c"/><path d="M96 104c28 9 48 25 65 46" fill="none" stroke="#dda986" stroke-width="15" stroke-linecap="round"/></g><g transform="translate(230 193)"><circle cx="44" cy="38" r="25" fill="#efc19e"/><path d="M17 39c1-28 18-43 40-43 18 0 32 11 37 27-14-5-28-2-39 7-10 7-20 10-38 9z" fill="#a1674e"/><path d="M13 80c15-24 33-34 53-34 20 0 39 10 54 34l11 101H2z" fill="#d2b167"/></g><g transform="translate(346 177)"><circle cx="46" cy="40" r="27" fill="#eac09d"/><path d="M17 41c1-31 19-47 43-47 20 0 35 12 40 29-16-5-30-2-42 7-11 8-21 12-41 11z" fill="#2f3134"/><path d="M15 85c16-27 35-38 57-38 21 0 42 11 58 38l10 111H4z" fill="#536e64"/></g><g transform="translate(478 193)"><circle cx="44" cy="38" r="25" fill="#efc5a5"/><path d="M17 39c1-28 18-43 40-43 18 0 32 11 37 27-14-5-28-2-39 7-10 7-20 10-38 9z" fill="#5c4035"/><path d="M13 80c15-24 33-34 53-34 20 0 39 10 54 34l11 101H2z" fill="#bd6047"/></g><g transform="translate(596 206)"><circle cx="44" cy="38" r="25" fill="#d6a782"/><path d="M17 39c1-28 18-43 40-43 18 0 32 11 37 27-14-5-28-2-39 7-10 7-20 10-38 9z" fill="#5d5542"/><path d="M13 80c15-24 33-34 53-34 20 0 39 10 54 34l11 101H2z" fill="#3f5f71"/></g><path d="M366 60h68l-7 37h-54z" fill="#f5dfa2"/><path d="M398 0v61" stroke="#6a4a39" stroke-width="8"/><circle cx="400" cy="96" r="24" fill="#ffd978" opacity=".35"/></svg>