<svg xmlns="http://www.w3.org/2000/svg" viewBox="0 0 256 256"><defs><linearGradient id="bg" x1="0" y1="0" x2="1" y2="1"><stop stop-color="#d8eef0"/><stop offset="1" stop-color="#f0e5c8"/></linearGradient><linearGradient id="shirt" x1="0" y1="0" x2="1" y2="1"><stop stop-color="#6c8163"/><stop offset="1" stop-color="#4f6951"/></linearGradient></defs><rect width="256" height="256" rx="44" fill="url(#bg)"/><path d="M0 126l42-37 33 26 38-60 54 66 34-32 55 51v47H0z" fill="#668e89" opacity=".46"/><path d="M0 156l61-30 43 24 45-37 60 46 47-18v48H0z" fill="#768d67" opacity=".8"/><ellipse cx="128" cy="274" rx="91" ry="84" fill="url(#shirt)"/><path d="M88 110c0-45 25-72 61-72 39 0 61 29 58 72-2 27-14 51-34 65-14 10-35 11-52 1-22-13-34-38-33-66z" fill="#e7b994"/><path d="M86 103c1-40 21-74 59-79 24-3 52 11 64 31-7-6-17-9-27-9 6 5 9 10 11 16-12-7-25-7-37-4 5 4 8 8 10 12-20-8-42-1-57 12-8 7-16 16-23 21z" fill="#5e4032"/><path d="M94 86c8-23 27-43 52-48-8 6-13 12-16 20-11 4-24 13-36 28z" fill="#463029"/><ellipse cx="119" cy="116" rx="4.8" ry="5.8" fill="#44312a"/><ellipse cx="166" cy="115" rx="4.8" ry="5.8" fill="#44312a"/><path d="M128 143c14 10 28 9 41-1" fill="none" stroke="#945552" stroke-width="4" stroke-linecap="round"/><path d="M107 102c8-5 18-5 26-1M154 100c9-4 18-3 26 2" fill="none" stroke="#51362d" stroke-width="3" stroke-linecap="round"/><path d="M109 184c13 8 38 9 53 0l3 20-59 3z" fill="#dfad89"/><path d="M67 228c22-21 42-30 60-30 18 0 42 8 63 30l17 28H51z" fill="url(#shirt)"/><path d="M120 203l9 15 11-15" fill="none" stroke="#e7d9c6" stroke-width="5" stroke-linecap="round"/><path d="M182 125c4 19-5 31-16 38" fill="none" stroke="#7c4d3d" stroke-width="4" stroke-linecap="round"/></svg>